solid CATIA STL
  facet normal  0.000000e+000  0.000000e+000  1.000000e+000
    outer loop
      vertex  1.200000e+002 -1.049304e+001  1.500000e+002
      vertex  8.819112e+001 -1.089196e+001  1.500000e+002
      vertex  1.400000e+002 -1.049304e+001  1.500000e+002
    endloop
  endfacet
  facet normal  0.000000e+000  0.000000e+000  1.000000e+000
    outer loop
      vertex  1.200000e+002 -1.049304e+001  1.500000e+002
      vertex  1.040867e+002 -9.989512e+000  1.500000e+002
      vertex  8.819112e+001 -1.089196e+001  1.500000e+002
    endloop
  endfacet
  facet normal  0.000000e+000  0.000000e+000  9.999999e-001
    outer loop
      vertex  1.040824e+002 -1.958605e+001  1.500000e+002
      vertex  7.243711e+001 -1.319334e+001  1.500000e+002
      vertex  5.694759e+001 -1.687570e+001  1.500000e+002
    endloop
  endfacet
  facet normal  0.000000e+000  0.000000e+000  1.000000e+000
    outer loop
      vertex  1.200000e+002 -1.980251e+001  1.500000e+002
      vertex  1.400000e+002 -1.980251e+001  1.500000e+002
      vertex  1.040824e+002 -1.958605e+001  1.500000e+002
    endloop
  endfacet
  facet normal  -0.000000e+000  0.000000e+000  1.000000e+000
    outer loop
      vertex  1.040824e+002 -1.958605e+001  1.500000e+002
      vertex  1.400000e+002 -1.980251e+001  1.500000e+002
      vertex  1.400000e+002 -1.049304e+001  1.500000e+002
    endloop
  endfacet
  facet normal  0.000000e+000  0.000000e+000  1.000000e+000
    outer loop
      vertex  1.040824e+002 -1.958605e+001  1.500000e+002
      vertex  1.400000e+002 -1.049304e+001  1.500000e+002
      vertex  7.243711e+001 -1.319334e+001  1.500000e+002
    endloop
  endfacet
  facet normal  0.000000e+000  0.000000e+000  1.000000e+000
    outer loop
      vertex  7.243711e+001 -1.319334e+001  1.500000e+002
      vertex  1.400000e+002 -1.049304e+001  1.500000e+002
      vertex  8.819112e+001 -1.089196e+001  1.500000e+002
    endloop
  endfacet
  facet normal  0.000000e+000  0.000000e+000  1.000000e+000
    outer loop
      vertex  1.040824e+002 -1.958605e+001  1.500000e+002
      vertex  5.694759e+001 -1.687570e+001  1.500000e+002
      vertex  8.820356e+001 -2.071712e+001  1.500000e+002
    endloop
  endfacet
  facet normal  0.000000e+000  0.000000e+000  1.000000e+000
    outer loop
      vertex  8.820356e+001 -2.071712e+001  1.500000e+002
      vertex  5.694759e+001 -1.687570e+001  1.500000e+002
      vertex  4.184336e+001 -2.191032e+001  1.500000e+002
    endloop
  endfacet
  facet normal  -0.000000e+000  0.000000e+000  1.000000e+000
    outer loop
      vertex  8.820356e+001 -2.071712e+001  1.500000e+002
      vertex  4.184336e+001 -2.191032e+001  1.500000e+002
      vertex  7.247736e+001 -2.318763e+001  1.500000e+002
    endloop
  endfacet
  facet normal  0.000000e+000  0.000000e+000  1.000000e+000
    outer loop
      vertex  7.247736e+001 -2.318763e+001  1.500000e+002
      vertex  4.184336e+001 -2.191032e+001  1.500000e+002
      vertex  2.724223e+001 -2.825795e+001  1.500000e+002
    endloop
  endfacet
  facet normal  0.000000e+000  0.000000e+000  9.999999e-001
    outer loop
      vertex  7.247736e+001 -2.318763e+001  1.500000e+002
      vertex  2.724223e+001 -2.825795e+001  1.500000e+002
      vertex  5.701657e+001 -2.697985e+001  1.500000e+002
    endloop
  endfacet
  facet normal  -0.000000e+000  0.000000e+000  1.000000e+000
    outer loop
      vertex  5.701657e+001 -2.697985e+001  1.500000e+002
      vertex  2.724223e+001 -2.825795e+001  1.500000e+002
      vertex  4.193208e+001 -3.206657e+001  1.500000e+002
    endloop
  endfacet
  facet normal  0.000000e+000  0.000000e+000  9.999999e-001
    outer loop
      vertex  4.193208e+001 -3.206657e+001  1.500000e+002
      vertex  2.724223e+001 -2.825795e+001  1.500000e+002
      vertex  1.325809e+001 -3.586905e+001  1.500000e+002
    endloop
  endfacet
  facet normal  -0.000000e+000  0.000000e+000  1.000000e+000
    outer loop
      vertex  4.193208e+001 -3.206657e+001  1.500000e+002
      vertex  1.325809e+001 -3.586905e+001  1.500000e+002
      vertex  2.733206e+001 -3.841134e+001  1.500000e+002
    endloop
  endfacet
  facet normal  0.000000e+000  0.000000e+000  1.000000e+000
    outer loop
      vertex  2.733206e+001 -3.841134e+001  1.500000e+002
      vertex  1.325809e+001 -3.586905e+001  1.500000e+002
      vertex  1.332120e+001 -4.596864e+001  1.500000e+002
    endloop
  endfacet
  facet normal  0.000000e+000  0.000000e+000  1.000000e+000
    outer loop
      vertex  1.332120e+001 -4.596864e+001  1.500000e+002
      vertex  1.325809e+001 -3.586905e+001  1.500000e+002
      vertex  4.263256e-014 -4.468428e+001  1.500000e+002
    endloop
  endfacet
  facet normal  0.000000e+000  0.000000e+000  1.000000e+000
    outer loop
      vertex  1.332120e+001 -4.596864e+001  1.500000e+002
      vertex  4.263256e-014 -4.468428e+001  1.500000e+002
      vertex  0.000000e+000 -5.468428e+001  1.500000e+002
    endloop
  endfacet
  facet normal  0.000000e+000  0.000000e+000 -1.000000e+000
    outer loop
      vertex  1.400000e+002 -1.049304e+001  0.000000e+000
      vertex  8.819112e+001 -1.089196e+001  0.000000e+000
      vertex  1.200000e+002 -1.049304e+001  0.000000e+000
    endloop
  endfacet
  facet normal  0.000000e+000  -0.000000e+000 -1.000000e+000
    outer loop
      vertex  8.819112e+001 -1.089196e+001  0.000000e+000
      vertex  1.040867e+002 -9.989512e+000  0.000000e+000
      vertex  1.200000e+002 -1.049304e+001  0.000000e+000
    endloop
  endfacet
  facet normal  0.000000e+000  -0.000000e+000 -9.999999e-001
    outer loop
      vertex  5.694759e+001 -1.687570e+001  0.000000e+000
      vertex  7.243711e+001 -1.319334e+001  0.000000e+000
      vertex  1.040824e+002 -1.958605e+001  0.000000e+000
    endloop
  endfacet
  facet normal  0.000000e+000  0.000000e+000 -1.000000e+000
    outer loop
      vertex  1.200000e+002 -1.980251e+001  0.000000e+000
      vertex  1.040824e+002 -1.958605e+001  0.000000e+000
      vertex  1.400000e+002 -1.980251e+001  0.000000e+000
    endloop
  endfacet
  facet normal  0.000000e+000  0.000000e+000 -1.000000e+000
    outer loop
      vertex  1.400000e+002 -1.980251e+001  0.000000e+000
      vertex  1.040824e+002 -1.958605e+001  0.000000e+000
      vertex  1.400000e+002 -1.049304e+001  0.000000e+000
    endloop
  endfacet
  facet normal  0.000000e+000  0.000000e+000 -1.000000e+000
    outer loop
      vertex  1.040824e+002 -1.958605e+001  0.000000e+000
      vertex  7.243711e+001 -1.319334e+001  0.000000e+000
      vertex  1.400000e+002 -1.049304e+001  0.000000e+000
    endloop
  endfacet
  facet normal  0.000000e+000  0.000000e+000 -1.000000e+000
    outer loop
      vertex  1.400000e+002 -1.049304e+001  0.000000e+000
      vertex  7.243711e+001 -1.319334e+001  0.000000e+000
      vertex  8.819112e+001 -1.089196e+001  0.000000e+000
    endloop
  endfacet
  facet normal  0.000000e+000  0.000000e+000 -9.999999e-001
    outer loop
      vertex  5.701657e+001 -2.697985e+001  0.000000e+000
      vertex  2.724223e+001 -2.825795e+001  0.000000e+000
      vertex  7.247736e+001 -2.318763e+001  0.000000e+000
    endloop
  endfacet
  facet normal  -0.000000e+000  0.000000e+000 -1.000000e+000
    outer loop
      vertex  7.247736e+001 -2.318763e+001  0.000000e+000
      vertex  2.724223e+001 -2.825795e+001  0.000000e+000
      vertex  4.184336e+001 -2.191032e+001  0.000000e+000
    endloop
  endfacet
  facet normal  0.000000e+000  0.000000e+000 -1.000000e+000
    outer loop
      vertex  7.247736e+001 -2.318763e+001  0.000000e+000
      vertex  4.184336e+001 -2.191032e+001  0.000000e+000
      vertex  8.820356e+001 -2.071712e+001  0.000000e+000
    endloop
  endfacet
  facet normal  -0.000000e+000  0.000000e+000 -1.000000e+000
    outer loop
      vertex  8.820356e+001 -2.071712e+001  0.000000e+000
      vertex  4.184336e+001 -2.191032e+001  0.000000e+000
      vertex  5.694759e+001 -1.687570e+001  0.000000e+000
    endloop
  endfacet
  facet normal  0.000000e+000  0.000000e+000 -1.000000e+000
    outer loop
      vertex  8.820356e+001 -2.071712e+001  0.000000e+000
      vertex  5.694759e+001 -1.687570e+001  0.000000e+000
      vertex  1.040824e+002 -1.958605e+001  0.000000e+000
    endloop
  endfacet
  facet normal  0.000000e+000  0.000000e+000 -1.000000e+000
    outer loop
      vertex  2.733206e+001 -3.841134e+001  0.000000e+000
      vertex  1.325809e+001 -3.586905e+001  0.000000e+000
      vertex  4.193208e+001 -3.206657e+001  0.000000e+000
    endloop
  endfacet
  facet normal  -0.000000e+000  0.000000e+000 -9.999999e-001
    outer loop
      vertex  4.193208e+001 -3.206657e+001  0.000000e+000
      vertex  1.325809e+001 -3.586905e+001  0.000000e+000
      vertex  2.724223e+001 -2.825795e+001  0.000000e+000
    endloop
  endfacet
  facet normal  0.000000e+000  0.000000e+000 -1.000000e+000
    outer loop
      vertex  4.193208e+001 -3.206657e+001  0.000000e+000
      vertex  2.724223e+001 -2.825795e+001  0.000000e+000
      vertex  5.701657e+001 -2.697985e+001  0.000000e+000
    endloop
  endfacet
  facet normal  0.000000e+000  -0.000000e+000 -1.000000e+000
    outer loop
      vertex  0.000000e+000 -5.468428e+001  0.000000e+000
      vertex  4.263256e-014 -4.468428e+001  0.000000e+000
      vertex  1.332120e+001 -4.596864e+001  0.000000e+000
    endloop
  endfacet
  facet normal  0.000000e+000  0.000000e+000 -1.000000e+000
    outer loop
      vertex  1.332120e+001 -4.596864e+001  0.000000e+000
      vertex  4.263256e-014 -4.468428e+001  0.000000e+000
      vertex  1.325809e+001 -3.586905e+001  0.000000e+000
    endloop
  endfacet
  facet normal  0.000000e+000  0.000000e+000 -1.000000e+000
    outer loop
      vertex  1.332120e+001 -4.596864e+001  0.000000e+000
      vertex  1.325809e+001 -3.586905e+001  0.000000e+000
      vertex  2.733206e+001 -3.841134e+001  0.000000e+000
    endloop
  endfacet
  facet normal  3.195368e-001 -9.475738e-001  0.000000e+000
    outer loop
      vertex  5.701657e+001 -2.697985e+001  0.000000e+000
      vertex  4.193208e+001 -3.206657e+001  1.500000e+002
      vertex  4.193208e+001 -3.206657e+001  0.000000e+000
    endloop
  endfacet
  facet normal  3.985640e-001 -9.171405e-001  0.000000e+000
    outer loop
      vertex  4.193208e+001 -3.206657e+001  0.000000e+000
      vertex  4.193208e+001 -3.206657e+001  1.500000e+002
      vertex  2.733206e+001 -3.841134e+001  1.500000e+002
    endloop
  endfacet
  facet normal  3.985640e-001 -9.171405e-001  0.000000e+000
    outer loop
      vertex  4.193208e+001 -3.206657e+001  0.000000e+000
      vertex  2.733206e+001 -3.841134e+001  1.500000e+002
      vertex  2.733206e+001 -3.841134e+001  0.000000e+000
    endloop
  endfacet
  facet normal  4.747325e-001 -8.801301e-001  0.000000e+000
    outer loop
      vertex  2.733206e+001 -3.841134e+001  0.000000e+000
      vertex  2.733206e+001 -3.841134e+001  1.500000e+002
      vertex  1.332120e+001 -4.596864e+001  1.500000e+002
    endloop
  endfacet
  facet normal  4.747325e-001 -8.801301e-001  0.000000e+000
    outer loop
      vertex  2.733206e+001 -3.841134e+001  0.000000e+000
      vertex  1.332120e+001 -4.596864e+001  1.500000e+002
      vertex  1.332120e+001 -4.596864e+001  0.000000e+000
    endloop
  endfacet
  facet normal  5.474969e-001 -8.368078e-001  0.000000e+000
    outer loop
      vertex  1.332120e+001 -4.596864e+001  0.000000e+000
      vertex  1.332120e+001 -4.596864e+001  1.500000e+002
      vertex  0.000000e+000 -5.468428e+001  1.500000e+002
    endloop
  endfacet
  facet normal  5.474969e-001 -8.368078e-001  0.000000e+000
    outer loop
      vertex  1.332120e+001 -4.596864e+001  0.000000e+000
      vertex  0.000000e+000 -5.468428e+001  1.500000e+002
      vertex  0.000000e+000 -5.468428e+001  0.000000e+000
    endloop
  endfacet
  facet normal  3.195368e-001 -9.475738e-001  0.000000e+000
    outer loop
      vertex  4.193208e+001 -3.206657e+001  1.500000e+002
      vertex  5.701657e+001 -2.697985e+001  0.000000e+000
      vertex  5.701657e+001 -2.697985e+001  1.500000e+002
    endloop
  endfacet
  facet normal  2.382185e-001 -9.712116e-001  0.000000e+000
    outer loop
      vertex  5.701657e+001 -2.697985e+001  1.500000e+002
      vertex  5.701657e+001 -2.697985e+001  0.000000e+000
      vertex  7.247736e+001 -2.318763e+001  0.000000e+000
    endloop
  endfacet
  facet normal  2.382185e-001 -9.712116e-001  0.000000e+000
    outer loop
      vertex  5.701657e+001 -2.697985e+001  1.500000e+002
      vertex  7.247736e+001 -2.318763e+001  0.000000e+000
      vertex  7.247736e+001 -2.318763e+001  1.500000e+002
    endloop
  endfacet
  facet normal  1.551916e-001 -9.878844e-001  0.000000e+000
    outer loop
      vertex  7.247736e+001 -2.318763e+001  1.500000e+002
      vertex  7.247736e+001 -2.318763e+001  0.000000e+000
      vertex  8.820356e+001 -2.071712e+001  0.000000e+000
    endloop
  endfacet
  facet normal  1.551916e-001 -9.878844e-001  0.000000e+000
    outer loop
      vertex  7.247736e+001 -2.318763e+001  1.500000e+002
      vertex  8.820356e+001 -2.071712e+001  0.000000e+000
      vertex  8.820356e+001 -2.071712e+001  1.500000e+002
    endloop
  endfacet
  facet normal  7.105169e-002 -9.974726e-001  0.000000e+000
    outer loop
      vertex  8.820356e+001 -2.071712e+001  1.500000e+002
      vertex  8.820356e+001 -2.071712e+001  0.000000e+000
      vertex  1.040824e+002 -1.958605e+001  0.000000e+000
    endloop
  endfacet
  facet normal  7.105169e-002 -9.974726e-001  0.000000e+000
    outer loop
      vertex  8.820356e+001 -2.071712e+001  1.500000e+002
      vertex  1.040824e+002 -1.958605e+001  0.000000e+000
      vertex  1.040824e+002 -1.958605e+001  1.500000e+002
    endloop
  endfacet
  facet normal -1.359772e-002 -9.999076e-001  -0.000000e+000
    outer loop
      vertex  1.040824e+002 -1.958605e+001  1.500000e+002
      vertex  1.040824e+002 -1.958605e+001  0.000000e+000
      vertex  1.200000e+002 -1.980251e+001  0.000000e+000
    endloop
  endfacet
  facet normal -1.359772e-002 -9.999076e-001  0.000000e+000
    outer loop
      vertex  1.040824e+002 -1.958605e+001  1.500000e+002
      vertex  1.200000e+002 -1.980251e+001  0.000000e+000
      vertex  1.200000e+002 -1.980251e+001  1.500000e+002
    endloop
  endfacet
  facet normal -1.000000e+000  4.263256e-015  0.000000e+000
    outer loop
      vertex  0.000000e+000 -5.468428e+001  0.000000e+000
      vertex  0.000000e+000 -5.468428e+001  1.500000e+002
      vertex  4.263256e-014 -4.468428e+001  0.000000e+000
    endloop
  endfacet
  facet normal -1.000000e+000  4.263256e-015  0.000000e+000
    outer loop
      vertex  4.263256e-014 -4.468428e+001  0.000000e+000
      vertex  0.000000e+000 -5.468428e+001  1.500000e+002
      vertex  4.263256e-014 -4.468428e+001  1.500000e+002
    endloop
  endfacet
  facet normal -5.536782e-001  8.327307e-001  0.000000e+000
    outer loop
      vertex  4.263256e-014 -4.468428e+001  0.000000e+000
      vertex  4.263256e-014 -4.468428e+001  1.500000e+002
      vertex  1.325809e+001 -3.586905e+001  0.000000e+000
    endloop
  endfacet
  facet normal -5.536782e-001  8.327307e-001  0.000000e+000
    outer loop
      vertex  1.325809e+001 -3.586905e+001  0.000000e+000
      vertex  4.263256e-014 -4.468428e+001  1.500000e+002
      vertex  1.325809e+001 -3.586905e+001  1.500000e+002
    endloop
  endfacet
  facet normal -4.780481e-001  8.783336e-001  0.000000e+000
    outer loop
      vertex  1.325809e+001 -3.586905e+001  0.000000e+000
      vertex  1.325809e+001 -3.586905e+001  1.500000e+002
      vertex  2.724223e+001 -2.825795e+001  0.000000e+000
    endloop
  endfacet
  facet normal -4.780481e-001  8.783336e-001  0.000000e+000
    outer loop
      vertex  2.724223e+001 -2.825795e+001  0.000000e+000
      vertex  1.325809e+001 -3.586905e+001  1.500000e+002
      vertex  2.724223e+001 -2.825795e+001  1.500000e+002
    endloop
  endfacet
  facet normal -3.986894e-001  9.170859e-001  0.000000e+000
    outer loop
      vertex  2.724223e+001 -2.825795e+001  0.000000e+000
      vertex  2.724223e+001 -2.825795e+001  1.500000e+002
      vertex  4.184336e+001 -2.191032e+001  0.000000e+000
    endloop
  endfacet
  facet normal -3.986894e-001  9.170859e-001  0.000000e+000
    outer loop
      vertex  4.184336e+001 -2.191032e+001  0.000000e+000
      vertex  2.724223e+001 -2.825795e+001  1.500000e+002
      vertex  4.184336e+001 -2.191032e+001  1.500000e+002
    endloop
  endfacet
  facet normal -3.162212e-001  9.486855e-001  0.000000e+000
    outer loop
      vertex  4.184336e+001 -2.191032e+001  0.000000e+000
      vertex  4.184336e+001 -2.191032e+001  1.500000e+002
      vertex  5.694759e+001 -1.687570e+001  0.000000e+000
    endloop
  endfacet
  facet normal -3.162212e-001  9.486855e-001  0.000000e+000
    outer loop
      vertex  5.694759e+001 -1.687570e+001  0.000000e+000
      vertex  4.184336e+001 -2.191032e+001  1.500000e+002
      vertex  5.694759e+001 -1.687570e+001  1.500000e+002
    endloop
  endfacet
  facet normal -2.312865e-001  9.728857e-001  0.000000e+000
    outer loop
      vertex  5.694759e+001 -1.687570e+001  0.000000e+000
      vertex  5.694759e+001 -1.687570e+001  1.500000e+002
      vertex  7.243711e+001 -1.319334e+001  0.000000e+000
    endloop
  endfacet
  facet normal -2.312865e-001  9.728857e-001  0.000000e+000
    outer loop
      vertex  7.243711e+001 -1.319334e+001  0.000000e+000
      vertex  5.694759e+001 -1.687570e+001  1.500000e+002
      vertex  7.243711e+001 -1.319334e+001  1.500000e+002
    endloop
  endfacet
  facet normal -1.445478e-001  9.894978e-001  0.000000e+000
    outer loop
      vertex  7.243711e+001 -1.319334e+001  0.000000e+000
      vertex  7.243711e+001 -1.319334e+001  1.500000e+002
      vertex  8.819112e+001 -1.089196e+001  0.000000e+000
    endloop
  endfacet
  facet normal -1.445478e-001  9.894978e-001  0.000000e+000
    outer loop
      vertex  8.819112e+001 -1.089196e+001  0.000000e+000
      vertex  7.243711e+001 -1.319334e+001  1.500000e+002
      vertex  8.819112e+001 -1.089196e+001  1.500000e+002
    endloop
  endfacet
  facet normal -5.668189e-002  9.983922e-001  0.000000e+000
    outer loop
      vertex  8.819112e+001 -1.089196e+001  0.000000e+000
      vertex  8.819112e+001 -1.089196e+001  1.500000e+002
      vertex  1.040867e+002 -9.989512e+000  0.000000e+000
    endloop
  endfacet
  facet normal -5.668189e-002  9.983922e-001  0.000000e+000
    outer loop
      vertex  1.040867e+002 -9.989512e+000  0.000000e+000
      vertex  8.819112e+001 -1.089196e+001  1.500000e+002
      vertex  1.040867e+002 -9.989512e+000  1.500000e+002
    endloop
  endfacet
  facet normal  3.162620e-002  9.994998e-001  0.000000e+000
    outer loop
      vertex  1.040867e+002 -9.989512e+000  0.000000e+000
      vertex  1.040867e+002 -9.989512e+000  1.500000e+002
      vertex  1.200000e+002 -1.049304e+001  0.000000e+000
    endloop
  endfacet
  facet normal  3.162620e-002  9.994998e-001  -0.000000e+000
    outer loop
      vertex  1.200000e+002 -1.049304e+001  0.000000e+000
      vertex  1.040867e+002 -9.989512e+000  1.500000e+002
      vertex  1.200000e+002 -1.049304e+001  1.500000e+002
    endloop
  endfacet
  facet normal  0.000000e+000  1.000000e+000  0.000000e+000
    outer loop
      vertex  1.200000e+002 -1.049304e+001  0.000000e+000
      vertex  1.200000e+002 -1.049304e+001  1.500000e+002
      vertex  1.400000e+002 -1.049304e+001  0.000000e+000
    endloop
  endfacet
  facet normal  0.000000e+000  1.000000e+000  -0.000000e+000
    outer loop
      vertex  1.400000e+002 -1.049304e+001  0.000000e+000
      vertex  1.200000e+002 -1.049304e+001  1.500000e+002
      vertex  1.400000e+002 -1.049304e+001  1.500000e+002
    endloop
  endfacet
  facet normal  1.000000e+000  0.000000e+000  0.000000e+000
    outer loop
      vertex  1.400000e+002 -1.049304e+001  0.000000e+000
      vertex  1.400000e+002 -1.049304e+001  1.500000e+002
      vertex  1.400000e+002 -1.980251e+001  0.000000e+000
    endloop
  endfacet
  facet normal  1.000000e+000  0.000000e+000  0.000000e+000
    outer loop
      vertex  1.400000e+002 -1.980251e+001  0.000000e+000
      vertex  1.400000e+002 -1.049304e+001  1.500000e+002
      vertex  1.400000e+002 -1.980251e+001  1.500000e+002
    endloop
  endfacet
  facet normal  0.000000e+000 -1.000000e+000  -0.000000e+000
    outer loop
      vertex  1.400000e+002 -1.980251e+001  0.000000e+000
      vertex  1.400000e+002 -1.980251e+001  1.500000e+002
      vertex  1.200000e+002 -1.980251e+001  0.000000e+000
    endloop
  endfacet
  facet normal  0.000000e+000 -1.000000e+000  0.000000e+000
    outer loop
      vertex  1.200000e+002 -1.980251e+001  0.000000e+000
      vertex  1.400000e+002 -1.980251e+001  1.500000e+002
      vertex  1.200000e+002 -1.980251e+001  1.500000e+002
    endloop
  endfacet
endsolid CATIA STL
