solid CATIA STL
  facet normal  -0.000000e+000  0.000000e+000  1.000000e+000
    outer loop
      vertex  1.413999e+002 -1.341589e+001  1.500000e+002
      vertex  1.249886e+002 -2.014855e+001  1.500000e+002
      vertex  1.413999e+002 -2.223693e+001  1.500000e+002
    endloop
  endfacet
  facet normal  -0.000000e+000  0.000000e+000  1.000000e+000
    outer loop
      vertex  1.413999e+002 -1.341589e+001  1.500000e+002
      vertex  1.084573e+002 -1.951115e+001  1.500000e+002
      vertex  1.249886e+002 -2.014855e+001  1.500000e+002
    endloop
  endfacet
  facet normal  0.000000e+000  0.000000e+000  9.999999e-001
    outer loop
      vertex  9.196565e+001 -1.054991e+001  1.500000e+002
      vertex  1.250329e+002 -1.094631e+001  1.500000e+002
      vertex  1.085084e+002 -9.988290e+000  1.500000e+002
    endloop
  endfacet
  facet normal  0.000000e+000  0.000000e+000  1.000000e+000
    outer loop
      vertex  1.250329e+002 -1.094631e+001  1.500000e+002
      vertex  9.196565e+001 -1.054991e+001  1.500000e+002
      vertex  1.413999e+002 -1.341589e+001  1.500000e+002
    endloop
  endfacet
  facet normal  0.000000e+000  0.000000e+000  1.000000e+000
    outer loop
      vertex  1.413999e+002 -1.341589e+001  1.500000e+002
      vertex  9.196565e+001 -1.054991e+001  1.500000e+002
      vertex  7.554417e+001 -1.262644e+001  1.500000e+002
    endloop
  endfacet
  facet normal  0.000000e+000  0.000000e+000  9.999999e-001
    outer loop
      vertex  1.413999e+002 -1.341589e+001  1.500000e+002
      vertex  7.554417e+001 -1.262644e+001  1.500000e+002
      vertex  1.084573e+002 -1.951115e+001  1.500000e+002
    endloop
  endfacet
  facet normal  0.000000e+000  0.000000e+000  9.999999e-001
    outer loop
      vertex  1.084573e+002 -1.951115e+001  1.500000e+002
      vertex  7.554417e+001 -1.262644e+001  1.500000e+002
      vertex  5.938235e+001 -1.620038e+001  1.500000e+002
    endloop
  endfacet
  facet normal  0.000000e+000  0.000000e+000  1.000000e+000
    outer loop
      vertex  1.084573e+002 -1.951115e+001  1.500000e+002
      vertex  5.938235e+001 -1.620038e+001  1.500000e+002
      vertex  9.193401e+001 -2.032967e+001  1.500000e+002
    endloop
  endfacet
  facet normal  0.000000e+000  0.000000e+000  1.000000e+000
    outer loop
      vertex  9.193401e+001 -2.032967e+001  1.500000e+002
      vertex  5.938235e+001 -1.620038e+001  1.500000e+002
      vertex  4.361646e+001 -2.124159e+001  1.500000e+002
    endloop
  endfacet
  facet normal  -0.000000e+000  0.000000e+000  1.000000e+000
    outer loop
      vertex  9.193401e+001 -2.032967e+001  1.500000e+002
      vertex  4.361646e+001 -2.124159e+001  1.500000e+002
      vertex  7.554664e+001 -2.259778e+001  1.500000e+002
    endloop
  endfacet
  facet normal  0.000000e+000  0.000000e+000  1.000000e+000
    outer loop
      vertex  7.554664e+001 -2.259778e+001  1.500000e+002
      vertex  4.361646e+001 -2.124159e+001  1.500000e+002
      vertex  2.837940e+001 -2.770757e+001  1.500000e+002
    endloop
  endfacet
  facet normal  0.000000e+000  0.000000e+000  1.000000e+000
    outer loop
      vertex  7.554664e+001 -2.259778e+001  1.500000e+002
      vertex  2.837940e+001 -2.770757e+001  1.500000e+002
      vertex  5.942215e+001 -2.629790e+001  1.500000e+002
    endloop
  endfacet
  facet normal  -0.000000e+000  0.000000e+000  9.999999e-001
    outer loop
      vertex  5.942215e+001 -2.629790e+001  1.500000e+002
      vertex  2.837940e+001 -2.770757e+001  1.500000e+002
      vertex  4.368542e+001 -3.140139e+001  1.500000e+002
    endloop
  endfacet
  facet normal  0.000000e+000  0.000000e+000  1.000000e+000
    outer loop
      vertex  4.368542e+001 -3.140139e+001  1.500000e+002
      vertex  2.837940e+001 -2.770757e+001  1.500000e+002
      vertex  1.379961e+001 -3.554382e+001  1.500000e+002
    endloop
  endfacet
  facet normal  -0.000000e+000  0.000000e+000  1.000000e+000
    outer loop
      vertex  4.368542e+001 -3.140139e+001  1.500000e+002
      vertex  1.379961e+001 -3.554382e+001  1.500000e+002
      vertex  2.845834e+001 -3.786870e+001  1.500000e+002
    endloop
  endfacet
  facet normal  0.000000e+000  0.000000e+000  1.000000e+000
    outer loop
      vertex  2.845834e+001 -3.786870e+001  1.500000e+002
      vertex  1.379961e+001 -3.554382e+001  1.500000e+002
      vertex  1.385884e+001 -4.564976e+001  1.500000e+002
    endloop
  endfacet
  facet normal  0.000000e+000  0.000000e+000  9.999999e-001
    outer loop
      vertex  1.385884e+001 -4.564976e+001  1.500000e+002
      vertex  1.379961e+001 -3.554382e+001  1.500000e+002
      vertex  1.686544e-010 -4.468428e+001  1.500000e+002
    endloop
  endfacet
  facet normal  0.000000e+000  0.000000e+000  1.000000e+000
    outer loop
      vertex  1.385884e+001 -4.564976e+001  1.500000e+002
      vertex  1.686544e-010 -4.468428e+001  1.500000e+002
      vertex  0.000000e+000 -5.468428e+001  1.500000e+002
    endloop
  endfacet
  facet normal  0.000000e+000  0.000000e+000 -1.000000e+000
    outer loop
      vertex  1.413999e+002 -2.223693e+001  0.000000e+000
      vertex  1.249886e+002 -2.014855e+001  0.000000e+000
      vertex  1.413999e+002 -1.341589e+001  0.000000e+000
    endloop
  endfacet
  facet normal  0.000000e+000  0.000000e+000 -1.000000e+000
    outer loop
      vertex  1.249886e+002 -2.014855e+001  0.000000e+000
      vertex  1.084573e+002 -1.951115e+001  0.000000e+000
      vertex  1.413999e+002 -1.341589e+001  0.000000e+000
    endloop
  endfacet
  facet normal  0.000000e+000  0.000000e+000 -9.999999e-001
    outer loop
      vertex  1.085084e+002 -9.988290e+000  0.000000e+000
      vertex  1.250329e+002 -1.094631e+001  0.000000e+000
      vertex  9.196565e+001 -1.054991e+001  0.000000e+000
    endloop
  endfacet
  facet normal  0.000000e+000  0.000000e+000 -1.000000e+000
    outer loop
      vertex  5.942215e+001 -2.629790e+001  0.000000e+000
      vertex  2.837940e+001 -2.770757e+001  0.000000e+000
      vertex  7.554664e+001 -2.259778e+001  0.000000e+000
    endloop
  endfacet
  facet normal  -0.000000e+000  0.000000e+000 -1.000000e+000
    outer loop
      vertex  7.554664e+001 -2.259778e+001  0.000000e+000
      vertex  2.837940e+001 -2.770757e+001  0.000000e+000
      vertex  4.361646e+001 -2.124159e+001  0.000000e+000
    endloop
  endfacet
  facet normal  0.000000e+000  0.000000e+000 -1.000000e+000
    outer loop
      vertex  7.554664e+001 -2.259778e+001  0.000000e+000
      vertex  4.361646e+001 -2.124159e+001  0.000000e+000
      vertex  9.193401e+001 -2.032967e+001  0.000000e+000
    endloop
  endfacet
  facet normal  -0.000000e+000  0.000000e+000 -1.000000e+000
    outer loop
      vertex  9.193401e+001 -2.032967e+001  0.000000e+000
      vertex  4.361646e+001 -2.124159e+001  0.000000e+000
      vertex  5.938235e+001 -1.620038e+001  0.000000e+000
    endloop
  endfacet
  facet normal  0.000000e+000  0.000000e+000 -1.000000e+000
    outer loop
      vertex  9.193401e+001 -2.032967e+001  0.000000e+000
      vertex  5.938235e+001 -1.620038e+001  0.000000e+000
      vertex  1.084573e+002 -1.951115e+001  0.000000e+000
    endloop
  endfacet
  facet normal  0.000000e+000  0.000000e+000 -9.999999e-001
    outer loop
      vertex  1.084573e+002 -1.951115e+001  0.000000e+000
      vertex  5.938235e+001 -1.620038e+001  0.000000e+000
      vertex  7.554417e+001 -1.262644e+001  0.000000e+000
    endloop
  endfacet
  facet normal  0.000000e+000  0.000000e+000 -9.999999e-001
    outer loop
      vertex  1.084573e+002 -1.951115e+001  0.000000e+000
      vertex  7.554417e+001 -1.262644e+001  0.000000e+000
      vertex  1.413999e+002 -1.341589e+001  0.000000e+000
    endloop
  endfacet
  facet normal  0.000000e+000  0.000000e+000 -1.000000e+000
    outer loop
      vertex  1.413999e+002 -1.341589e+001  0.000000e+000
      vertex  7.554417e+001 -1.262644e+001  0.000000e+000
      vertex  9.196565e+001 -1.054991e+001  0.000000e+000
    endloop
  endfacet
  facet normal  0.000000e+000  0.000000e+000 -1.000000e+000
    outer loop
      vertex  1.413999e+002 -1.341589e+001  0.000000e+000
      vertex  9.196565e+001 -1.054991e+001  0.000000e+000
      vertex  1.250329e+002 -1.094631e+001  0.000000e+000
    endloop
  endfacet
  facet normal  0.000000e+000  0.000000e+000 -1.000000e+000
    outer loop
      vertex  2.845834e+001 -3.786870e+001  0.000000e+000
      vertex  1.379961e+001 -3.554382e+001  0.000000e+000
      vertex  4.368542e+001 -3.140139e+001  0.000000e+000
    endloop
  endfacet
  facet normal  -0.000000e+000  0.000000e+000 -1.000000e+000
    outer loop
      vertex  4.368542e+001 -3.140139e+001  0.000000e+000
      vertex  1.379961e+001 -3.554382e+001  0.000000e+000
      vertex  2.837940e+001 -2.770757e+001  0.000000e+000
    endloop
  endfacet
  facet normal  0.000000e+000  0.000000e+000 -9.999999e-001
    outer loop
      vertex  4.368542e+001 -3.140139e+001  0.000000e+000
      vertex  2.837940e+001 -2.770757e+001  0.000000e+000
      vertex  5.942215e+001 -2.629790e+001  0.000000e+000
    endloop
  endfacet
  facet normal  0.000000e+000  -0.000000e+000 -1.000000e+000
    outer loop
      vertex  0.000000e+000 -5.468428e+001  0.000000e+000
      vertex  1.686544e-010 -4.468428e+001  0.000000e+000
      vertex  1.385884e+001 -4.564976e+001  0.000000e+000
    endloop
  endfacet
  facet normal  0.000000e+000  0.000000e+000 -9.999999e-001
    outer loop
      vertex  1.385884e+001 -4.564976e+001  0.000000e+000
      vertex  1.686544e-010 -4.468428e+001  0.000000e+000
      vertex  1.379961e+001 -3.554382e+001  0.000000e+000
    endloop
  endfacet
  facet normal  0.000000e+000  0.000000e+000 -1.000000e+000
    outer loop
      vertex  1.385884e+001 -4.564976e+001  0.000000e+000
      vertex  1.379961e+001 -3.554382e+001  0.000000e+000
      vertex  2.845834e+001 -3.786870e+001  0.000000e+000
    endloop
  endfacet
  facet normal  3.084871e-001 -9.512285e-001  0.000000e+000
    outer loop
      vertex  5.942215e+001 -2.629790e+001  0.000000e+000
      vertex  4.368542e+001 -3.140139e+001  1.500000e+002
      vertex  4.368542e+001 -3.140139e+001  0.000000e+000
    endloop
  endfacet
  facet normal  3.909257e-001 -9.204222e-001  0.000000e+000
    outer loop
      vertex  4.368542e+001 -3.140139e+001  0.000000e+000
      vertex  4.368542e+001 -3.140139e+001  1.500000e+002
      vertex  2.845834e+001 -3.786870e+001  1.500000e+002
    endloop
  endfacet
  facet normal  3.909257e-001 -9.204222e-001  0.000000e+000
    outer loop
      vertex  4.368542e+001 -3.140139e+001  0.000000e+000
      vertex  2.845834e+001 -3.786870e+001  1.500000e+002
      vertex  2.845834e+001 -3.786870e+001  0.000000e+000
    endloop
  endfacet
  facet normal  4.703368e-001 -8.824871e-001  0.000000e+000
    outer loop
      vertex  2.845834e+001 -3.786870e+001  0.000000e+000
      vertex  2.845834e+001 -3.786870e+001  1.500000e+002
      vertex  1.385884e+001 -4.564976e+001  1.500000e+002
    endloop
  endfacet
  facet normal  4.703368e-001 -8.824871e-001  0.000000e+000
    outer loop
      vertex  2.845834e+001 -3.786870e+001  0.000000e+000
      vertex  1.385884e+001 -4.564976e+001  1.500000e+002
      vertex  1.385884e+001 -4.564976e+001  0.000000e+000
    endloop
  endfacet
  facet normal  5.461047e-001 -8.377169e-001  0.000000e+000
    outer loop
      vertex  1.385884e+001 -4.564976e+001  0.000000e+000
      vertex  1.385884e+001 -4.564976e+001  1.500000e+002
      vertex  0.000000e+000 -5.468428e+001  1.500000e+002
    endloop
  endfacet
  facet normal  5.461047e-001 -8.377169e-001  0.000000e+000
    outer loop
      vertex  1.385884e+001 -4.564976e+001  0.000000e+000
      vertex  0.000000e+000 -5.468428e+001  1.500000e+002
      vertex  0.000000e+000 -5.468428e+001  0.000000e+000
    endloop
  endfacet
  facet normal  3.084871e-001 -9.512285e-001  0.000000e+000
    outer loop
      vertex  4.368542e+001 -3.140139e+001  1.500000e+002
      vertex  5.942215e+001 -2.629790e+001  0.000000e+000
      vertex  5.942215e+001 -2.629790e+001  1.500000e+002
    endloop
  endfacet
  facet normal  2.236591e-001 -9.746674e-001  0.000000e+000
    outer loop
      vertex  5.942215e+001 -2.629790e+001  1.500000e+002
      vertex  5.942215e+001 -2.629790e+001  0.000000e+000
      vertex  7.554664e+001 -2.259778e+001  0.000000e+000
    endloop
  endfacet
  facet normal  2.236591e-001 -9.746674e-001  0.000000e+000
    outer loop
      vertex  5.942215e+001 -2.629790e+001  1.500000e+002
      vertex  7.554664e+001 -2.259778e+001  0.000000e+000
      vertex  7.554664e+001 -2.259778e+001  1.500000e+002
    endloop
  endfacet
  facet normal  1.370989e-001 -9.905574e-001  0.000000e+000
    outer loop
      vertex  7.554664e+001 -2.259778e+001  1.500000e+002
      vertex  7.554664e+001 -2.259778e+001  0.000000e+000
      vertex  9.193401e+001 -2.032967e+001  0.000000e+000
    endloop
  endfacet
  facet normal  1.370989e-001 -9.905574e-001  0.000000e+000
    outer loop
      vertex  7.554664e+001 -2.259778e+001  1.500000e+002
      vertex  9.193401e+001 -2.032967e+001  0.000000e+000
      vertex  9.193401e+001 -2.032967e+001  1.500000e+002
    endloop
  endfacet
  facet normal  4.947692e-002 -9.987752e-001  0.000000e+000
    outer loop
      vertex  9.193401e+001 -2.032967e+001  1.500000e+002
      vertex  9.193401e+001 -2.032967e+001  0.000000e+000
      vertex  1.084573e+002 -1.951115e+001  0.000000e+000
    endloop
  endfacet
  facet normal  4.947692e-002 -9.987752e-001  0.000000e+000
    outer loop
      vertex  9.193401e+001 -2.032967e+001  1.500000e+002
      vertex  1.084573e+002 -1.951115e+001  0.000000e+000
      vertex  1.084573e+002 -1.951115e+001  1.500000e+002
    endloop
  endfacet
  facet normal -3.852839e-002 -9.992575e-001  -0.000000e+000
    outer loop
      vertex  1.084573e+002 -1.951115e+001  1.500000e+002
      vertex  1.084573e+002 -1.951115e+001  0.000000e+000
      vertex  1.249886e+002 -2.014855e+001  0.000000e+000
    endloop
  endfacet
  facet normal -3.852839e-002 -9.992575e-001  0.000000e+000
    outer loop
      vertex  1.084573e+002 -1.951115e+001  1.500000e+002
      vertex  1.249886e+002 -2.014855e+001  0.000000e+000
      vertex  1.249886e+002 -2.014855e+001  1.500000e+002
    endloop
  endfacet
  facet normal -1.262353e-001 -9.920003e-001  -0.000000e+000
    outer loop
      vertex  1.249886e+002 -2.014855e+001  1.500000e+002
      vertex  1.249886e+002 -2.014855e+001  0.000000e+000
      vertex  1.413999e+002 -2.223693e+001  0.000000e+000
    endloop
  endfacet
  facet normal -1.262353e-001 -9.920003e-001  0.000000e+000
    outer loop
      vertex  1.249886e+002 -2.014855e+001  1.500000e+002
      vertex  1.413999e+002 -2.223693e+001  0.000000e+000
      vertex  1.413999e+002 -2.223693e+001  1.500000e+002
    endloop
  endfacet
  facet normal -1.000000e+000  1.686544e-011  0.000000e+000
    outer loop
      vertex  0.000000e+000 -5.468428e+001  0.000000e+000
      vertex  0.000000e+000 -5.468428e+001  1.500000e+002
      vertex  1.686544e-010 -4.468428e+001  0.000000e+000
    endloop
  endfacet
  facet normal -1.000000e+000  1.686544e-011  0.000000e+000
    outer loop
      vertex  1.686544e-010 -4.468428e+001  0.000000e+000
      vertex  0.000000e+000 -5.468428e+001  1.500000e+002
      vertex  1.686544e-010 -4.468428e+001  1.500000e+002
    endloop
  endfacet
  facet normal -5.522184e-001  8.336994e-001  0.000000e+000
    outer loop
      vertex  1.686544e-010 -4.468428e+001  0.000000e+000
      vertex  1.686544e-010 -4.468428e+001  1.500000e+002
      vertex  1.379961e+001 -3.554382e+001  0.000000e+000
    endloop
  endfacet
  facet normal -5.522184e-001  8.336994e-001  0.000000e+000
    outer loop
      vertex  1.379961e+001 -3.554382e+001  0.000000e+000
      vertex  1.686544e-010 -4.468428e+001  1.500000e+002
      vertex  1.379961e+001 -3.554382e+001  1.500000e+002
    endloop
  endfacet
  facet normal -4.734251e-001  8.808341e-001  0.000000e+000
    outer loop
      vertex  1.379961e+001 -3.554382e+001  0.000000e+000
      vertex  1.379961e+001 -3.554382e+001  1.500000e+002
      vertex  2.837940e+001 -2.770757e+001  0.000000e+000
    endloop
  endfacet
  facet normal -4.734251e-001  8.808341e-001  0.000000e+000
    outer loop
      vertex  2.837940e+001 -2.770757e+001  0.000000e+000
      vertex  1.379961e+001 -3.554382e+001  1.500000e+002
      vertex  2.837940e+001 -2.770757e+001  1.500000e+002
    endloop
  endfacet
  facet normal -3.906406e-001  9.205432e-001  0.000000e+000
    outer loop
      vertex  2.837940e+001 -2.770757e+001  0.000000e+000
      vertex  2.837940e+001 -2.770757e+001  1.500000e+002
      vertex  4.361646e+001 -2.124159e+001  0.000000e+000
    endloop
  endfacet
  facet normal -3.906406e-001  9.205432e-001  0.000000e+000
    outer loop
      vertex  4.361646e+001 -2.124159e+001  0.000000e+000
      vertex  2.837940e+001 -2.770757e+001  1.500000e+002
      vertex  4.361646e+001 -2.124159e+001  1.500000e+002
    endloop
  endfacet
  facet normal -3.045632e-001  9.524921e-001  0.000000e+000
    outer loop
      vertex  4.361646e+001 -2.124159e+001  0.000000e+000
      vertex  4.361646e+001 -2.124159e+001  1.500000e+002
      vertex  5.938235e+001 -1.620038e+001  0.000000e+000
    endloop
  endfacet
  facet normal -3.045632e-001  9.524921e-001  0.000000e+000
    outer loop
      vertex  5.938235e+001 -1.620038e+001  0.000000e+000
      vertex  4.361646e+001 -2.124159e+001  1.500000e+002
      vertex  5.938235e+001 -1.620038e+001  1.500000e+002
    endloop
  endfacet
  facet normal -2.159183e-001  9.764114e-001  0.000000e+000
    outer loop
      vertex  5.938235e+001 -1.620038e+001  0.000000e+000
      vertex  5.938235e+001 -1.620038e+001  1.500000e+002
      vertex  7.554417e+001 -1.262644e+001  0.000000e+000
    endloop
  endfacet
  facet normal -2.159183e-001  9.764114e-001  0.000000e+000
    outer loop
      vertex  7.554417e+001 -1.262644e+001  0.000000e+000
      vertex  5.938235e+001 -1.620038e+001  1.500000e+002
      vertex  7.554417e+001 -1.262644e+001  1.500000e+002
    endloop
  endfacet
  facet normal -1.254531e-001  9.920995e-001  0.000000e+000
    outer loop
      vertex  7.554417e+001 -1.262644e+001  0.000000e+000
      vertex  7.554417e+001 -1.262644e+001  1.500000e+002
      vertex  9.196565e+001 -1.054991e+001  0.000000e+000
    endloop
  endfacet
  facet normal -1.254531e-001  9.920995e-001  0.000000e+000
    outer loop
      vertex  9.196565e+001 -1.054991e+001  0.000000e+000
      vertex  7.554417e+001 -1.262644e+001  1.500000e+002
      vertex  9.196565e+001 -1.054991e+001  1.500000e+002
    endloop
  endfacet
  facet normal -3.393028e-002  9.994242e-001  0.000000e+000
    outer loop
      vertex  9.196565e+001 -1.054991e+001  0.000000e+000
      vertex  9.196565e+001 -1.054991e+001  1.500000e+002
      vertex  1.085084e+002 -9.988290e+000  0.000000e+000
    endloop
  endfacet
  facet normal -3.393028e-002  9.994242e-001  0.000000e+000
    outer loop
      vertex  1.085084e+002 -9.988290e+000  0.000000e+000
      vertex  9.196565e+001 -1.054991e+001  1.500000e+002
      vertex  1.085084e+002 -9.988290e+000  1.500000e+002
    endloop
  endfacet
  facet normal  5.787848e-002  9.983236e-001  0.000000e+000
    outer loop
      vertex  1.085084e+002 -9.988290e+000  0.000000e+000
      vertex  1.085084e+002 -9.988290e+000  1.500000e+002
      vertex  1.250329e+002 -1.094631e+001  0.000000e+000
    endloop
  endfacet
  facet normal  5.787848e-002  9.983236e-001  -0.000000e+000
    outer loop
      vertex  1.250329e+002 -1.094631e+001  0.000000e+000
      vertex  1.085084e+002 -9.988290e+000  1.500000e+002
      vertex  1.250329e+002 -1.094631e+001  1.500000e+002
    endloop
  endfacet
  facet normal  1.491993e-001  9.888071e-001  0.000000e+000
    outer loop
      vertex  1.250329e+002 -1.094631e+001  0.000000e+000
      vertex  1.250329e+002 -1.094631e+001  1.500000e+002
      vertex  1.413999e+002 -1.341589e+001  0.000000e+000
    endloop
  endfacet
  facet normal  1.491993e-001  9.888071e-001  -0.000000e+000
    outer loop
      vertex  1.413999e+002 -1.341589e+001  0.000000e+000
      vertex  1.250329e+002 -1.094631e+001  1.500000e+002
      vertex  1.413999e+002 -1.341589e+001  1.500000e+002
    endloop
  endfacet
  facet normal  1.000000e+000  0.000000e+000  0.000000e+000
    outer loop
      vertex  1.413999e+002 -2.223693e+001  0.000000e+000
      vertex  1.413999e+002 -1.341589e+001  0.000000e+000
      vertex  1.413999e+002 -2.223693e+001  1.500000e+002
    endloop
  endfacet
  facet normal  1.000000e+000  -0.000000e+000  0.000000e+000
    outer loop
      vertex  1.413999e+002 -2.223693e+001  1.500000e+002
      vertex  1.413999e+002 -1.341589e+001  0.000000e+000
      vertex  1.413999e+002 -1.341589e+001  1.500000e+002
    endloop
  endfacet
endsolid CATIA STL
